<svg xmlns="http://www.w3.org/2000/svg" data-name="Layer 1" viewBox="0 0 100 125" x="0px" y="0px"><title>Laurel_Wreaths</title><path d="M83,65.31C87.62,62.38,90,54.4,86.7,48.62,84.21,52.3,82.32,60,83,65.31Z"/><path d="M77.76,76.78C83.07,79.22,89.93,71.65,91,66,86.4,66.12,80.32,72.83,77.76,76.78Z"/><path d="M67.08,84.89c3,3,10.93,1.85,15.92-5.59C78.6,77.71,71,82.15,67.08,84.89Z"/><path d="M54.39,88.87c2.63,5.31,12.21,4,16.84.23C67.58,86.19,58.72,87.49,54.39,88.87Z"/><path d="M41.15,88.26c.49,4.23,7.38,8.51,15.79,6C54.45,90.1,45.84,88.64,41.15,88.26Z"/><path d="M74.67,73.7c-2.45-4.69.69-10.82,2.13-13.63C80,62.53,80.24,69.12,74.67,73.7Z"/><path d="M65.15,80.93c-.57-4.3,2.95-9.53,6.38-12.14C74.31,73.18,70.4,79.35,65.15,80.93Z"/><path d="M53.86,84.47c.51-2.79,3.4-6.72,9.93-9.22C64.77,79.18,61.06,84.53,53.86,84.47Z"/><path d="M42.06,83.92c2.24-3.88,8.45-5.5,12.35-5.31C53.9,83.88,47,86.06,42.06,83.92Z"/><path d="M12.31,54.83l1-.16c5.4,33.69,49.18,44.94,68.21,12.55,1.13.65,1.15,0-.66,3.06C60.16,100.46,17.69,88.41,12.31,54.83Z"/><path d="M17,34.69C12.38,37.62,10,45.6,13.3,51.38,15.79,47.7,17.68,40,17,34.69Z"/><path d="M22.24,23.22C16.93,20.78,10.07,28.35,9,34,13.6,33.88,19.68,27.17,22.24,23.22Z"/><path d="M32.92,15.11C30,12.11,22,13.26,17,20.7,21.4,22.29,29,17.85,32.92,15.11Z"/><path d="M45.61,11.13C43,5.82,33.4,7.14,28.77,10.9,32.42,13.81,41.28,12.51,45.61,11.13Z"/><path d="M58.85,11.74c-.49-4.23-7.38-8.51-15.79-6C45.55,9.9,54.16,11.36,58.85,11.74Z"/><path d="M25.33,26.3c2.45,4.69-.69,10.82-2.13,13.63C20,37.47,19.76,30.88,25.33,26.3Z"/><path d="M34.85,19.07c.57,4.3-3,9.53-6.38,12.14C25.69,26.82,29.6,20.65,34.85,19.07Z"/><path d="M46.14,15.53c-.51,2.79-3.4,6.72-9.93,9.22C35.23,20.82,38.94,15.47,46.14,15.53Z"/><path d="M57.94,16.08c-2.24,3.88-8.45,5.5-12.35,5.31C46.1,16.12,53,13.94,57.94,16.08Z"/><path d="M87.69,45.17l-1,.16C81.33,11.64,37.55.39,18.52,32.78c-1.13-.65-1.15,0,.66-3.06C39.84-.46,82.31,11.59,87.69,45.17Z"/><text x="0" y="115" fill="#000000" font-size="5px" font-weight="bold" font-family="'Helvetica Neue', Helvetica, Arial-Unicode, Arial, Sans-serif">Created by prasong tadoungsorn</text><text x="0" y="120" fill="#000000" font-size="5px" font-weight="bold" font-family="'Helvetica Neue', Helvetica, Arial-Unicode, Arial, Sans-serif">from the Noun Project</text></svg>