<svg xmlns="http://www.w3.org/2000/svg" xmlns:xlink="http://www.w3.org/1999/xlink" version="1.1" x="0px" y="0px" viewBox="0 19.833 56.5 100.20875000000001" enable-background="new 0 19.833 56.5 80.167" xml:space="preserve"><path d="M51.801,92.336c-8.892-0.987-15.768-4.498-20.491-10.444c0.097,0.031,0.192,0.06,0.281,0.074  c1.941,0.317,6.143-1.913,7.419-9.729c1.278-7.817-3.337-15.076-3.366-15.079c-0.008-0.003-6.714,5.405-7.989,13.221  c-0.324,1.979-0.341,3.678-0.161,5.12c-2.444-5.515-3.306-11.636-3.159-17.525c0.164,0.223,0.335,0.396,0.504,0.506  c1.335,0.871,5.179,0.589,8.681-4.786c3.503-5.377,2.455-12.266,2.434-12.278c-0.004-0.004-6.744,1.813-10.246,7.188  c-0.172,0.265-0.323,0.521-0.472,0.777c0.535-2.891,1.261-5.598,2.105-7.975c0.004-0.013,0.001-0.025,0.005-0.038  c1.485-0.238,3.707-1.788,4.954-5.977c1.54-5.177-0.954-10.481-0.973-10.49c-0.003-0.001-5.005,3.082-6.544,8.259  c-1.163,3.91-0.281,6.38,0.718,7.503c-0.012,0.026-0.034,0.045-0.044,0.073c-0.606,1.708-1.148,3.589-1.614,5.574  c-0.166-1.218-0.615-2.65-1.5-4.283c-2.757-5.082-8.664-7.208-8.683-7.196c-0.004,0-1.458,6.117,1.298,11.198  c2.756,5.081,6.316,5.543,7.449,4.929c0.214-0.116,0.432-0.31,0.635-0.566c-0.765,4.794-0.986,10.024-0.31,15.195  c-0.629-0.816-1.381-1.657-2.308-2.518C14.62,57.677,6.019,57.502,6,57.526c-0.007,0.006,0.787,8.582,6.592,13.969  c5.802,5.389,10.626,4.429,11.828,3.134c0.132-0.142,0.251-0.324,0.362-0.528c0.792,2.184,1.776,4.305,3.028,6.304  c0.805,1.286,1.694,2.476,2.65,3.59c-0.958-0.251-2.017-0.452-3.213-0.57c-7.883-0.781-14.834,4.285-14.836,4.312  c-0.002,0.01,5.82,6.357,13.701,7.138s11.139-2.902,11.314-4.661c0.011-0.112,0.011-0.233,0.004-0.358  c3.999,2.37,8.723,3.868,14.15,4.471c0.038,0.004,0.075,0.006,0.112,0.006c0.502,0,0.936-0.378,0.992-0.89  C52.745,92.892,52.35,92.397,51.801,92.336z"/><text x="0" y="115" fill="#000000" font-size="5px" font-weight="bold" font-family="'Helvetica Neue', Helvetica, Arial-Unicode, Arial, Sans-serif">Created by corpus delicti</text><text x="0" y="120" fill="#000000" font-size="5px" font-weight="bold" font-family="'Helvetica Neue', Helvetica, Arial-Unicode, Arial, Sans-serif">from the Noun Project</text></svg>